<svg xmlns="http://www.w3.org/2000/svg" xml:space="preserve" viewBox="0 0 1080 1080"><path fill="#090909" d="M233 607.54h-74.62V393.1h123.53v14.62H173.44v184.57H364.9v15.26H233z"/><path fill="#060606" d="M860 607.51h-74.72v-14.87H898.9v-184.6H732.39v-14.92h181.6v214.4H860zM554.58 333.25c22.7 4.17 37.03 17.62 43.76 38.69 8.14 25.53 7.65 50.9-6.07 74.7-9.8 17-25.2 25.62-44.76 26.15-14.77.4-29.55.07-44.44.07v-139.7c17.2 0 34.13 0 51.5.09m-37.7 56.25v69.46c10.7 0 20.86.47 30.96-.12 13.95-.81 25.5-6.92 32.28-19.39 13.19-24.25 12.74-49.04.2-73.35-5.36-10.38-14.67-17.44-26.26-18.68-12.11-1.3-24.47-.29-37.19-.29v42.37z"/><path fill="#080808" d="M338.79 333.11c3.76-.38 3.23 1.94 3.23 3.89V392.63h62.96v-59.12h14.3v139.67h-14.06v-66.32H342.2v66.4h-13.94V333.11h10.53z"/><path fill="#090909" d="M529.93 595.99c2.96 7.74 5.83 15.1 9.2 23.77 3.62-9.23 7.11-17.14 9.78-25.32 1.7-5.23 3.94-8.16 10.15-5.93l12.33 31.4 18.54-48.1c7.33-19 14.75-37.98 21.91-57.05 1.1-2.93 2.36-4.27 5.56-4.03 3.42.26 6.88.06 10.95.06L575.2 642.58c-5.39 1.85-8.18.28-9.96-5.16-2.66-8.16-6.26-16.02-9.89-25.06-2.06 4.99-3.82 9.23-5.56 13.48-1.9 4.6-3.88 9.18-5.59 13.85-.9 2.47-2 3.62-4.91 3.6-2.75-.03-4.1-.75-5.13-3.3-17.15-42.78-34.4-85.52-51.99-129.2 4.84 0 9.23-.33 13.52.22 1.24.15 2.51 2.69 3.16 4.36 10.4 26.73 20.7 53.49 31.1 80.62z"/><path fill="#040404" d="M665 332.45h21.21v13.57h-57.14v47.74H684v13.2h-54.74v51.9H687v13.95h-71.7V332.45H665z"/><path fill="#0A0A0A" d="M509.98 644.87h-7.7c-4.32-11.01-8.72-21.9-12.84-32.9-1.14-3.03-2.46-4.27-5.99-4.21-15.65.26-31.3.2-46.95.03-3.16-.03-4.56.9-5.66 3.94a692.37 692.37 0 0 1-11.82 30.05c-.57 1.36-2.62 2.79-4.13 2.95-3.77.43-7.61.14-11.97.14 4.58-11.58 8.97-22.8 13.45-34 12.56-31.36 25.22-62.68 37.65-94.09 1.8-4.56 3.78-7.66 9.87-5.43l53.52 133.52h-7.43m-37.38-76.91-12.49-32.17-22.54 58.33h45c-3.35-8.8-6.51-17.12-9.97-26.16z"/><path fill="#080808" d="M638.74 528.6c2.04-5.12 4.13-9.82 5.8-14.67.9-2.61 2.13-3.51 4.98-3.54 2.93-.03 3.95 1.1 4.95 3.6 11.4 28.64 22.96 57.22 34.45 85.82 5.86 14.59 11.68 29.19 17.9 44.74-4.96 0-9.36.28-13.69-.19-1.15-.12-2.42-2.37-3.03-3.88a1283.9 1283.9 0 0 1-11.54-29.67c-1-2.68-2.2-3.76-5.32-3.71-15.49.22-30.98.25-46.47-.02-3.92-.07-5.5 1.4-6.74 4.83-3.46 9.49-7.4 18.8-10.86 28.3-1.2 3.27-2.85 4.76-6.42 4.41-3.12-.3-6.3-.06-10.57-.06 15.65-38.95 31.04-77.27 46.56-115.96m20.22 30.98-9.49-24.06-22.55 58.39h45.18c-4.4-11.44-8.67-22.51-13.14-34.33z"/><path fill="#090909" d="M703.94 518.96c7.23 18.01 14.33 35.65 21.87 54.37l25.47-63.07h13.46c-2.2 5.49-4.25 10.65-6.35 15.8-8.01 19.61-16.09 39.2-24 58.86a21.56 21.56 0 0 0-1.44 7.7c-.14 15.14-.07 30.3-.08 45.44v6.37h-13.89c0-17.37.06-34.33-.06-51.3a21.37 21.37 0 0 0-1.49-7.66c-9.48-23.49-19.1-46.92-28.67-70.38-.62-1.5-1.1-3.06-1.66-4.66 12.9-.94 12.9-.94 16.84 8.53z"/><path fill="#080808" d="M482.33 333.22c.42 4.23.42 8.33.42 12.6h-15.38V460.4h15.56v12.88H437.3v-12.64h15.76V333.1c9.97 0 19.4 0 29.27.12z"/><path fill="#0D0D0D" d="M566.97 680.07c6.78 11.21 7.78 23.03 3.45 35.3-3.55 10.08-12.06 16.2-22.53 16.52-10.94.33-19.78-5.17-24.06-15.11-4.28-9.94-4.29-20.17-.5-30.08 5.97-15.62 22.98-20.72 38.39-11.45a829.3 829.3 0 0 1 5.25 4.82m-6.06 35.09c4.08-8.17 4.28-16.59 1.26-25.05-2.5-6.98-7.94-10.78-15.02-10.94-6.79-.16-12.68 3.76-15.42 10.45-2.73 6.66-2.8 13.49-.97 20.4 1.76 6.64 5.68 11.43 12.45 12.82 7.06 1.44 13.13-.77 17.7-7.68zM501.5 720.75c2.48-3.47 4.62-6.72 7.23-10.67h7.17c-1.38 12.06-8.74 20-19.98 21.7-11.29 1.7-21.9-3.9-26.27-14.48-4.74-11.47-4.69-23.09 1.22-34.15 5.32-9.97 15.53-14.28 27.09-12.13 9.75 1.82 15.75 8.6 17.78 20.28h-8.22c-1.79-6.36-5.42-11.13-12.54-12.19-8.86-1.3-16.55 3.5-18.41 12.86a48.66 48.66 0 0 0-.16 18.18c2.26 11.81 13.15 16.21 25.1 10.6z"/><path fill="#101010" d="M710.2 721.92c7.75.42 15.23.42 23.05.42v8.38h-31.9v-59.24h31.53v8.32h-22.72v15.98h21.86v8.6h-22.09c0 5.94 0 11.53.27 17.54z"/><path fill="#0B0B0B" d="M668.87 686.03v9.73h21.85v8.65h-21.6v17.85h22.81v8.52h-31.6v-59.32h31.32v8.33h-22.78v6.24z"/><path fill="#0D0D0D" d="M593.01 671.14h19.25v8.49H589.2v16.28h21.07v8.8h-21.18v25.98h-8.83v-59.55H593zM628.88 686.04v9.85h21.3v8.97h-21.24v25.9h-8.75v-59.43h31.95v8.45h-23.26v6.26z"/><path fill="#101010" d="M471.14 304.92c3.04 3.5 3.93 7.43 1.11 10.59-1.79 2.01-5.35 3.6-7.96 3.4-2.34-.19-5.11-2.67-6.52-4.89-2.1-3.3-.79-6.85 2.17-9.26 3.48-2.83 7.26-2.85 11.2.16z"/></svg>